<?xml version="1.0" ?><svg height="30px" version="1.1" viewBox="0 0 30 30" width="30px" xmlns="http://www.w3.org/2000/svg" xmlns:sketch="http://www.bohemiancoding.com/sketch/ns" xmlns:xlink="http://www.w3.org/1999/xlink"><title/><desc/><defs/><g fill="none" fill-rule="evenodd" id="shopping" stroke="none" stroke-width="1"><g fill="#fff" id="shopping_066-voucher-ticket-coupon-discount" transform="translate(-270.000000, -270.000000)"><g transform="translate(272.000000, 276.000000)"><path d="M15.5,5 C15.7761424,5 16,4.77614237 16,4.5 C16,4.22385763 15.7761424,4 15.5,4 L7.5,4 C7.22385763,4 7,4.22385763 7,4.5 C7,4.77614237 7.22385763,5 7.5,5 L15.5,5 Z" id="Shape"/><path d="M15.5,9 C15.7761424,9 16,8.77614237 16,8.5 C16,8.22385763 15.7761424,8 15.5,8 L7.5,8 C7.22385763,8 7,8.22385763 7,8.5 C7,8.77614237 7.22385763,9 7.5,9 L15.5,9 Z" id="Shape"/><path d="M12.5,13 C12.7761424,13 13,12.7761424 13,12.5 C13,12.2238576 12.7761424,12 12.5,12 L7.5,12 C7.22385763,12 7,12.2238576 7,12.5 C7,12.7761424 7.22385763,13 7.5,13 L12.5,13 Z" id="Shape"/><path d="M4,8.5 C4,6.56700338 2.43299662,5 0.5,5 C0.223857625,5 0,5.22385763 0,5.5 C0,5.77614237 0.223857625,6 0.5,6 C1.88071187,6 3,7.11928813 3,8.5 C3,9.88071187 1.88071187,11 0.5,11 C0.223857625,11 0,11.2238576 0,11.5 C0,11.7761424 0.223857625,12 0.5,12 C2.43299662,12 4,10.4329966 4,8.5 Z" id="Shape"/><path d="M26,8.5 C26,6.56700338 24.4329966,5 22.5,5 C22.2238576,5 22,5.22385763 22,5.5 C22,5.77614237 22.2238576,6 22.5,6 C23.8807119,6 25,7.11928813 25,8.5 C25,9.88071187 23.8807119,11 22.5,11 C22.2238576,11 22,11.2238576 22,11.5 C22,11.7761424 22.2238576,12 22.5,12 C24.4329966,12 26,10.4329966 26,8.5 Z" id="Shape" transform="translate(24.000000, 8.500000) scale(-1, 1) translate(-24.000000, -8.500000) "/><path d="M1,1 L25,1 L25,5.5 L26,5.5 L26,0.5 C26,0.223857625 25.7761424,0 25.5,0 L0.5,0 C0.223857625,0 0,0.223857625 0,0.5 L0,5.5 L1,5.5 L1,1 Z" id="Shape"/><path d="M1,12.5 L25,12.5 L25,17 L26,17 L26,12 C26,11.7238576 25.7761424,11.5 25.5,11.5 L0.5,11.5 C0.223857625,11.5 0,11.7238576 0,12 L0,17 L1,17 L1,12.5 Z" id="Shape" transform="translate(13.000000, 14.250000) scale(1, -1) translate(-13.000000, -14.250000) "/><circle cx="19.5" cy="2.5" id="Oval" r="0.5"/><circle cx="19.5" cy="4.5" id="Oval" r="0.5"/><circle cx="19.5" cy="6.5" id="Oval" r="0.5"/><circle cx="19.5" cy="8.5" id="Oval" r="0.5"/><circle cx="19.5" cy="10.5" id="Oval" r="0.5"/><circle cx="19.5" cy="12.5" id="Oval" r="0.5"/><circle cx="19.5" cy="14.5" id="Oval" r="0.5"/></g></g></g></svg>