<?xml version="1.0" ?><svg height="24px" version="1.1" viewBox="0 0 24 24" width="24px" xmlns="http://www.w3.org/2000/svg" xmlns:xlink="http://www.w3.org/1999/xlink"><title/><desc/><defs/><g fill="none" fill-rule="evenodd" id="Page-1" stroke="none" stroke-width="1"><g fill="#fff" fill-rule="nonzero" id="acction-outline" transform="translate(-168.000000, -216.000000)"><g id="gift-present-birthday-party-celebrate" transform="translate(170.000000, 216.000000)"><path d="M1,10 L8,10 L8,7 L1,7 L1,10 Z M0.5,6 L8.5,6 C8.77614237,6 9,6.22385763 9,6.5 L9,10.5 C9,10.7761424 8.77614237,11 8.5,11 L0.5,11 C0.223857625,11 0,10.7761424 0,10.5 L0,6.5 C0,6.22385763 0.223857625,6 0.5,6 Z" id="Rectangle-5"/><path d="M9,7 L9,23 L12,23 L12,7 L9,7 Z M8.5,6 L12.5,6 C12.7761424,6 13,6.22385763 13,6.5 L13,23.5 C13,23.7761424 12.7761424,24 12.5,24 L8.5,24 C8.22385763,24 8,23.7761424 8,23.5 L8,6.5 C8,6.22385763 8.22385763,6 8.5,6 Z" id="Rectangle-5"/><path d="M10.9998146,6.51361579 C11.0326819,5.30710818 11.4900981,3.66388871 12.1499827,2.52777218 C12.8760728,1.27767018 13.6739021,0.830424474 14.5091677,1.26103065 C15.3339675,1.68624142 15.3829418,2.47276381 14.6957641,3.5456194 C14.0097345,4.6166826 12.7336471,5.6400027 11.5960005,6.02658619 L11.9177418,6.97341381 C13.2739854,6.51254892 14.731681,5.3435935 15.5378394,4.08497938 C16.5048907,2.5751714 16.4141602,1.1180495 14.9673915,0.372193847 C13.5497057,-0.358668704 12.2453679,0.372514626 11.2852612,2.02552056 C10.5404847,3.30779457 10.0375577,5.11450678 10.0001854,6.48638421 L10.9998146,6.51361579 Z" id="Line-29"/><path d="M9.55161298,6.5 C9.55161298,5.77438161 9.14767194,4.43976105 8.58802421,3.47510114 C7.95572467,2.38521195 7.28728926,1.95055681 6.66839359,2.23359145 C6.05516489,2.51403446 6.00274966,3.10478431 6.51742609,3.97127411 C7.05068175,4.86904318 8.05834526,5.72296459 8.95500713,6.02638091 L8.63447657,6.97361909 C7.50375495,6.59100062 6.30899914,5.57853211 5.65765766,4.4819582 C4.87709161,3.16782669 4.98942079,1.90181215 6.25249903,1.32417861 C7.47413838,0.76549598 8.59498529,1.4943351 9.45299897,2.97328578 C10.0964158,4.08233766 10.551613,5.58630859 10.551613,6.5 L9.55161298,6.5 Z" id="Line-29"/><path d="M13,10 L20,10 L20,7 L13,7 L13,10 Z M12.5,6 L20.5,6 C20.7761424,6 21,6.22385763 21,6.5 L21,10.5 C21,10.7761424 20.7761424,11 20.5,11 L12.5,11 C12.2238576,11 12,10.7761424 12,10.5 L12,6.5 C12,6.22385763 12.2238576,6 12.5,6 Z" id="Rectangle-5"/><path d="M2,23 L8,23 L8,11 L2,11 L2,23 Z M1.5,10 L8.5,10 C8.77614237,10 9,10.2238576 9,10.5 L9,23.5 C9,23.7761424 8.77614237,24 8.5,24 L1.5,24 C1.22385763,24 1,23.7761424 1,23.5 L1,10.5 C1,10.2238576 1.22385763,10 1.5,10 Z" id="Rectangle-5"/><path d="M13,23 L19,23 L19,11 L13,11 L13,23 Z M12.5,10 L19.5,10 C19.7761424,10 20,10.2238576 20,10.5 L20,23.5 C20,23.7761424 19.7761424,24 19.5,24 L12.5,24 C12.2238576,24 12,23.7761424 12,23.5 L12,10.5 C12,10.2238576 12.2238576,10 12.5,10 Z" id="Rectangle-5"/></g></g></g></svg>