<?xml version="1.0" ?><svg id="Layer_1" style="enable-background:new 0 0 512 512;" version="1.0" viewBox="0 0 512 512" xml:space="preserve" xmlns="http://www.w3.org/2000/svg" xmlns:xlink="http://www.w3.org/1999/xlink"><style type="text/css">
	.st0{fill-rule:evenodd;clip-rule:evenodd;fill:none;stroke:#fff;stroke-width:24;stroke-linecap:round;stroke-linejoin:round;}
</style><path class="st0" d="M460.3,256.1L460.3,256.1c-0.7-7.9,5-25.1,11.3-40c6.3-14.9,4.4-25.5,2.6-31c-1.8-5.4-6.4-15.1-20.3-23.5  c-13.8-8.3-28.4-18.7-32.6-25.6l0,0c0,0-0.1-0.1-0.1-0.1c0,0,0-0.1-0.1-0.1l0,0c-5.2-6.1-10.6-23.2-14.2-38.9  c-3.7-15.8-11.4-23.2-16.1-26.6c-4.6-3.4-14.1-8.5-30.3-7.1c-16,1.4-34,1.5-41.4-1.5h0c0,0-0.1,0-0.1,0c0,0-0.1,0-0.1,0l0,0  c-7.8-1.9-22.2-12.6-34.4-23.1c-11.6-10-21.7-11.9-27.6-12.1v0h-1.4v0c-5.8,0-16.3,1.6-28.4,12.1c-12.1,10.5-26.6,21.2-34.4,23.1  l0,0c0,0-0.1,0-0.1,0c0,0-0.1,0-0.1,0h0c-7.4,3-25.4,2.9-41.4,1.5c-16.1-1.4-25.6,3.7-30.3,7.1c-4.6,3.4-12.4,10.8-16.1,26.6  c-3.6,15.7-9.1,32.8-14.2,38.9l0,0c0,0,0,0.1-0.1,0.1c0,0-0.1,0.1-0.1,0.1l0,0c-4.2,6.8-18.8,17.3-32.6,25.6  c-13.9,8.4-18.6,18.1-20.3,23.5c-1.8,5.4-3.7,16,2.6,31c6.3,14.9,12,32.1,11.3,40l0-0.1c0.7,8-5,25.1-11.3,39.9  C34,310.9,36,321.5,37.7,327c1.8,5.4,6.5,15.1,20.4,23.5c13.8,8.3,28.4,18.7,32.6,25.6l0,0c0,0,0.1,0.1,0.1,0.1c0,0,0,0.1,0.1,0.1  l0,0c5.2,6.1,10.6,23.2,14.3,38.9c3.7,15.8,11.4,23.2,16.1,26.6c4.6,3.4,14.1,8.5,30.3,7.1c16-1.4,34-1.5,41.4,1.5h0  c0,0,0.1,0,0.1,0c0,0,0.1,0,0.1,0l0,0c7.8,1.9,22.3,12.6,34.4,23.1c12.1,10.5,22.7,12,28.4,12.1v0c0,0,0.1,0,0.1,0c0,0,0.1,0,0.1,0  v0c5.8,0,16.3-1.6,28.4-12.1c12.1-10.5,26.6-21.2,34.4-23.1l0,0c0,0,0.1,0,0.1,0c0,0,0.1,0,0.1,0h0c7.4-3,25.4-2.9,41.4-1.5  c16.2,1.4,25.7-3.7,30.3-7.1c4.6-3.4,12.4-10.8,16.1-26.6c3.6-15.6,9.1-32.7,14.3-38.9l0,0c0,0,0-0.1,0.1-0.1c0,0,0.1-0.1,0.1-0.1  l0,0c4.2-6.8,18.8-17.3,32.6-25.6c13.9-8.4,18.6-18,20.4-23.5c1.8-5.4,3.7-16-2.6-30.9C465.3,281.1,459.6,264,460.3,256.1z"/><ellipse class="st0" cx="190.6" cy="190.6" rx="32" ry="32" transform="matrix(0.7071 -0.7071 0.7071 0.7071 -78.9293 190.5521)"/><ellipse class="st0" cx="321.4" cy="321.4" rx="32" ry="32" transform="matrix(0.7071 -0.7071 0.7071 0.7071 -133.1481 321.4479)"/><line class="st0" x1="176.1" x2="335.9" y1="335.9" y2="176.1"/></svg>